<?xml version="1.0" encoding="UTF-8" standalone="no"?>
<!DOCTYPE svg PUBLIC "-//W3C//DTD SVG 20010904//EN"
              "http://www.w3.org/TR/2001/REC-SVG-20010904/DTD/svg10.dtd">

<svg xmlns="http://www.w3.org/2000/svg"
     width="16px" height="16px"
     viewBox="0 0 1500 1500">
  <path id="Seleção"
        fill="currentcolor" stroke="currentColor" stroke-width="1"
        d="M 308.00,256.00
           C 308.00,256.00 308.00,289.00 308.00,289.00
             308.00,289.00 351.00,296.57 351.00,296.57
             351.00,296.57 425.00,309.58 425.00,309.58
             425.00,309.58 612.00,342.42 612.00,342.42
             612.00,342.42 681.00,354.61 681.00,354.61
             681.00,354.61 739.00,364.00 739.00,364.00
             739.00,364.00 762.00,364.00 762.00,364.00
             762.00,364.00 791.00,359.42 791.00,359.42
             791.00,359.42 846.00,349.61 846.00,349.61
             846.00,349.61 987.00,324.80 987.00,324.80
             987.00,324.80 1144.00,297.20 1144.00,297.20
             1144.00,297.20 1176.00,291.57 1176.00,291.57
             1176.00,291.57 1189.40,288.07 1189.40,288.07
             1189.40,288.07 1191.00,280.00 1191.00,280.00
             1191.00,280.00 1191.00,256.00 1191.00,256.00
             1179.03,256.01 1161.21,259.88 1149.00,262.20
             1149.00,262.20 1095.00,271.75 1095.00,271.75
             1095.00,271.75 865.00,312.25 865.00,312.25
             865.00,312.25 799.00,323.80 799.00,323.80
             799.00,323.80 755.00,331.00 755.00,331.00
             733.76,331.24 728.98,328.79 709.00,325.43
             709.00,325.43 640.00,313.25 640.00,313.25
             640.00,313.25 413.00,273.39 413.00,273.39
             413.00,273.39 343.00,260.92 343.00,260.92
             331.35,258.95 319.85,256.00 308.00,256.00 Z
           M 233.00,339.00
           C 233.00,339.00 278.00,345.73 278.00,345.73
             278.00,345.73 365.00,358.73 365.00,358.73
             365.00,358.73 597.00,393.42 597.00,393.42
             597.00,393.42 671.00,404.43 671.00,404.43
             671.00,404.43 739.00,414.00 739.00,414.00
             739.00,414.00 762.00,414.00 762.00,414.00
             762.00,414.00 790.00,410.27 790.00,410.27
             790.00,410.27 849.00,401.27 849.00,401.27
             849.00,401.27 1024.00,375.13 1024.00,375.13
             1024.00,375.13 1210.00,347.13 1210.00,347.13
             1210.00,347.13 1249.00,341.42 1249.00,341.42
             1249.00,341.42 1264.40,338.07 1264.40,338.07
             1264.40,338.07 1266.00,330.00 1266.00,330.00
             1266.00,330.00 1266.00,306.00 1266.00,306.00
             1253.62,306.00 1234.82,309.59 1222.00,311.58
             1222.00,311.58 1161.00,320.72 1161.00,320.72
             1161.00,320.72 1055.00,336.73 1055.00,336.73
             1055.00,336.73 889.00,361.42 889.00,361.42
             889.00,361.42 802.00,374.43 802.00,374.43
             802.00,374.43 754.00,381.00 754.00,381.00
             754.00,381.00 743.00,381.00 743.00,381.00
             743.00,381.00 710.00,376.42 710.00,376.42
             710.00,376.42 656.00,368.28 656.00,368.28
             656.00,368.28 461.00,339.13 461.00,339.13
             461.00,339.13 287.00,313.13 287.00,313.13
             287.00,313.13 250.00,307.58 250.00,307.58
             246.60,307.05 238.25,305.16 235.31,306.60
             232.46,307.99 233.01,312.32 233.00,315.00
             233.00,315.00 233.00,339.00 233.00,339.00 Z
           M 158.00,356.00
           C 158.00,356.00 158.00,380.00 158.00,380.00
             158.00,382.04 157.76,385.77 159.02,387.42
             160.96,389.96 171.64,390.75 175.00,391.15
             175.00,391.15 222.00,397.15 222.00,397.15
             222.00,397.15 287.00,405.85 287.00,405.85
             287.00,405.85 363.00,415.72 363.00,415.72
             363.00,415.72 431.00,424.42 431.00,424.42
             431.00,424.42 622.00,449.28 622.00,449.28
             622.00,449.28 699.00,459.28 699.00,459.28
             699.00,459.28 737.00,464.00 737.00,464.00
             737.00,464.00 761.00,464.00 761.00,464.00
             761.00,464.00 823.00,456.28 823.00,456.28
             823.00,456.28 938.00,441.28 938.00,441.28
             938.00,441.28 1006.00,432.72 1006.00,432.72
             1006.00,432.72 1197.00,407.72 1197.00,407.72
             1197.00,407.72 1274.00,397.72 1274.00,397.72
             1274.00,397.72 1312.00,392.72 1312.00,392.72
             1312.00,392.72 1341.00,389.00 1341.00,389.00
             1341.00,389.00 1341.00,365.00 1341.00,365.00
             1340.99,362.32 1341.54,357.99 1338.69,356.60
             1335.94,355.25 1324.56,357.26 1321.00,357.72
             1321.00,357.72 1279.00,363.15 1279.00,363.15
             1279.00,363.15 1184.00,375.72 1184.00,375.72
             1184.00,375.72 1078.00,389.28 1078.00,389.28
             1078.00,389.28 963.00,404.28 963.00,404.28
             963.00,404.28 857.00,418.15 857.00,418.15
             857.00,418.15 788.00,427.15 788.00,427.15
             788.00,427.15 757.00,431.00 757.00,431.00
             757.00,431.00 745.00,431.00 745.00,431.00
             745.00,431.00 695.00,425.15 695.00,425.15
             695.00,425.15 597.00,412.28 597.00,412.28
             597.00,412.28 415.00,388.72 415.00,388.72
             415.00,388.72 278.00,370.85 278.00,370.85
             278.00,370.85 201.00,360.72 201.00,360.72
             201.00,360.72 158.00,356.00 158.00,356.00 Z
           M 136.00,484.00
           C 136.00,484.00 136.00,512.00 136.00,512.00
             136.00,512.00 1364.00,512.00 1364.00,512.00
             1364.00,512.00 1364.00,484.00 1364.00,484.00
             1364.00,484.00 136.00,484.00 136.00,484.00 Z
           M 136.00,534.00
           C 136.00,534.00 136.00,562.00 136.00,562.00
             136.00,562.00 1364.00,562.00 1364.00,562.00
             1364.00,562.00 1364.00,534.00 1364.00,534.00
             1364.00,534.00 136.00,534.00 136.00,534.00 Z
           M 136.00,584.00
           C 136.49,585.49 136.42,586.07 137.59,587.37
             139.45,589.40 151.72,595.12 155.00,596.75
             155.00,596.75 186.00,612.63 186.00,612.63
             189.25,614.96 194.93,620.93 198.00,624.00
             203.84,629.84 208.26,636.83 217.00,637.00
             217.00,637.00 356.00,637.00 356.00,637.00
             358.09,637.00 361.06,637.12 363.00,636.40
             366.18,635.23 369.59,631.41 372.00,629.00
             376.73,624.28 385.77,614.47 391.00,611.35
             391.00,611.35 426.00,593.75 426.00,593.75
             431.00,591.26 437.16,589.62 439.00,584.00
             439.00,584.00 136.00,584.00 136.00,584.00 Z
           M 597.00,584.00
           C 597.49,585.49 597.42,586.07 598.59,587.37
             600.45,589.40 612.72,595.12 616.00,596.75
             616.00,596.75 647.00,612.63 647.00,612.63
             650.25,614.96 655.93,620.93 659.00,624.00
             664.84,629.84 669.26,636.83 678.00,637.00
             678.00,637.00 817.00,637.00 817.00,637.00
             819.09,637.00 822.06,637.12 824.00,636.40
             827.18,635.23 830.59,631.41 833.00,629.00
             837.73,624.28 846.77,614.47 852.00,611.35
             852.00,611.35 887.00,593.75 887.00,593.75
             892.00,591.26 898.16,589.62 900.00,584.00
             900.00,584.00 597.00,584.00 597.00,584.00 Z
           M 1061.00,584.00
           C 1062.84,589.62 1069.00,591.26 1074.00,593.75
             1074.00,593.75 1109.00,611.35 1109.00,611.35
             1114.23,614.47 1123.27,624.28 1128.00,629.00
             1130.41,631.41 1133.82,635.23 1137.00,636.40
             1138.94,637.12 1141.91,637.00 1144.00,637.00
             1144.00,637.00 1281.00,637.00 1281.00,637.00
             1283.09,637.00 1286.06,637.12 1288.00,636.40
             1291.18,635.23 1294.59,631.41 1297.00,629.00
             1300.70,625.31 1310.47,615.16 1314.00,612.63
             1314.00,612.63 1350.00,594.25 1350.00,594.25
             1355.09,591.70 1362.09,589.81 1364.00,584.00
             1364.00,584.00 1061.00,584.00 1061.00,584.00 Z
           M 186.00,659.00
           C 186.00,659.00 186.00,1212.00 186.00,1212.00
             192.26,1210.16 196.51,1204.49 201.00,1200.00
             201.00,1200.00 229.00,1172.00 229.00,1172.00
             234.47,1166.53 238.85,1164.12 239.00,1156.00
             239.00,1156.00 239.00,1032.00 239.00,1032.00
             239.00,1032.00 239.00,783.00 239.00,783.00
             239.00,783.00 239.00,717.00 239.00,717.00
             238.98,706.34 235.38,705.38 228.00,698.00
             228.00,698.00 209.00,679.00 209.00,679.00
             203.42,673.42 193.09,661.08 186.00,659.00 Z
           M 211.00,659.00
           C 212.84,665.26 218.51,669.51 223.00,674.00
             223.00,674.00 249.00,700.00 249.00,700.00
             256.55,707.55 260.98,709.03 261.00,720.00
             261.00,720.00 261.00,1151.00 261.00,1151.00
             260.98,1161.97 256.55,1163.45 249.00,1171.00
             249.00,1171.00 223.00,1197.00 223.00,1197.00
             218.51,1201.49 212.84,1205.74 211.00,1212.00
             211.00,1212.00 364.00,1212.00 364.00,1212.00
             362.16,1205.74 356.49,1201.49 352.00,1197.00
             352.00,1197.00 326.00,1171.00 326.00,1171.00
             318.45,1163.45 314.02,1161.97 314.00,1151.00
             314.00,1151.00 314.00,720.00 314.00,720.00
             314.02,709.03 318.45,707.55 326.00,700.00
             326.00,700.00 352.00,674.00 352.00,674.00
             356.49,669.51 362.16,665.26 364.00,659.00
             364.00,659.00 211.00,659.00 211.00,659.00 Z
           M 389.00,1212.00
           C 389.00,1212.00 389.00,659.00 389.00,659.00
             382.74,660.84 378.49,666.51 374.00,671.00
             374.00,671.00 346.00,699.00 346.00,699.00
             340.53,704.47 336.15,706.88 336.00,715.00
             336.00,715.00 336.00,839.00 336.00,839.00
             336.00,839.00 336.00,1088.00 336.00,1088.00
             336.00,1088.00 336.00,1154.00 336.00,1154.00
             336.02,1164.66 339.62,1165.62 347.00,1173.00
             347.00,1173.00 366.00,1192.00 366.00,1192.00
             371.58,1197.58 381.91,1209.92 389.00,1212.00 Z
           M 647.00,659.00
           C 647.00,659.00 647.00,1212.00 647.00,1212.00
             653.26,1210.16 657.51,1204.49 662.00,1200.00
             662.00,1200.00 690.00,1172.00 690.00,1172.00
             695.47,1166.53 699.85,1164.12 700.00,1156.00
             700.00,1156.00 700.00,1032.00 700.00,1032.00
             700.00,1032.00 700.00,783.00 700.00,783.00
             700.00,783.00 700.00,717.00 700.00,717.00
             699.98,706.34 696.38,705.38 689.00,698.00
             689.00,698.00 670.00,679.00 670.00,679.00
             664.42,673.42 654.09,661.08 647.00,659.00 Z
           M 672.00,659.00
           C 673.84,665.26 679.51,669.51 684.00,674.00
             684.00,674.00 710.00,700.00 710.00,700.00
             717.55,707.55 721.98,709.03 722.00,720.00
             722.00,720.00 722.00,1151.00 722.00,1151.00
             721.98,1161.97 717.55,1163.45 710.00,1171.00
             710.00,1171.00 684.00,1197.00 684.00,1197.00
             679.51,1201.49 673.84,1205.74 672.00,1212.00
             672.00,1212.00 825.00,1212.00 825.00,1212.00
             823.16,1205.74 817.49,1201.49 813.00,1197.00
             813.00,1197.00 787.00,1171.00 787.00,1171.00
             779.45,1163.45 775.02,1161.97 775.00,1151.00
             775.00,1151.00 775.00,720.00 775.00,720.00
             775.02,709.03 779.45,707.55 787.00,700.00
             787.00,700.00 813.00,674.00 813.00,674.00
             817.49,669.51 823.16,665.26 825.00,659.00
             825.00,659.00 672.00,659.00 672.00,659.00 Z
           M 850.00,1212.00
           C 850.00,1212.00 850.00,659.00 850.00,659.00
             843.74,660.84 839.49,666.51 835.00,671.00
             835.00,671.00 807.00,699.00 807.00,699.00
             801.53,704.47 797.15,706.88 797.00,715.00
             797.00,715.00 797.00,839.00 797.00,839.00
             797.00,839.00 797.00,1088.00 797.00,1088.00
             797.00,1088.00 797.00,1154.00 797.00,1154.00
             797.02,1164.66 800.62,1165.62 808.00,1173.00
             808.00,1173.00 827.00,1192.00 827.00,1192.00
             832.58,1197.58 842.91,1209.92 850.00,1212.00 Z
           M 1111.00,659.00
           C 1111.00,659.00 1111.00,1212.00 1111.00,1212.00
             1117.26,1210.16 1121.51,1204.49 1126.00,1200.00
             1126.00,1200.00 1154.00,1172.00 1154.00,1172.00
             1159.47,1166.53 1163.85,1164.12 1164.00,1156.00
             1164.00,1156.00 1164.00,1032.00 1164.00,1032.00
             1164.00,1032.00 1164.00,783.00 1164.00,783.00
             1164.00,783.00 1164.00,717.00 1164.00,717.00
             1163.98,706.34 1160.38,705.38 1153.00,698.00
             1153.00,698.00 1134.00,679.00 1134.00,679.00
             1128.42,673.42 1118.09,661.08 1111.00,659.00 Z
           M 1136.00,659.00
           C 1137.84,665.26 1143.51,669.51 1148.00,674.00
             1148.00,674.00 1174.00,700.00 1174.00,700.00
             1181.55,707.55 1185.98,709.03 1186.00,720.00
             1186.00,720.00 1186.00,1151.00 1186.00,1151.00
             1185.98,1161.97 1181.55,1163.45 1174.00,1171.00
             1174.00,1171.00 1148.00,1197.00 1148.00,1197.00
             1143.51,1201.49 1137.84,1205.74 1136.00,1212.00
             1136.00,1212.00 1289.00,1212.00 1289.00,1212.00
             1287.16,1205.74 1281.49,1201.49 1277.00,1197.00
             1277.00,1197.00 1251.00,1171.00 1251.00,1171.00
             1243.45,1163.45 1239.02,1161.97 1239.00,1151.00
             1239.00,1151.00 1239.00,720.00 1239.00,720.00
             1239.02,709.03 1243.45,707.55 1251.00,700.00
             1251.00,700.00 1277.00,674.00 1277.00,674.00
             1281.49,669.51 1287.16,665.26 1289.00,659.00
             1289.00,659.00 1136.00,659.00 1136.00,659.00 Z
           M 1314.00,1212.00
           C 1314.00,1212.00 1314.00,659.00 1314.00,659.00
             1307.74,660.84 1303.49,666.51 1299.00,671.00
             1299.00,671.00 1271.00,699.00 1271.00,699.00
             1265.53,704.47 1261.15,706.88 1261.00,715.00
             1261.00,715.00 1261.00,839.00 1261.00,839.00
             1261.00,839.00 1261.00,1088.00 1261.00,1088.00
             1261.00,1088.00 1261.00,1154.00 1261.00,1154.00
             1261.02,1164.66 1264.62,1165.62 1272.00,1173.00
             1272.00,1173.00 1291.00,1192.00 1291.00,1192.00
             1296.58,1197.58 1306.91,1209.92 1314.00,1212.00 Z
           M 136.00,1287.00
           C 136.00,1287.00 439.00,1287.00 439.00,1287.00
             437.19,1281.83 430.59,1280.05 426.00,1277.75
             426.00,1277.75 391.00,1260.04 391.00,1260.04
             386.56,1257.14 376.34,1246.34 372.00,1242.00
             369.59,1239.59 366.18,1235.77 363.00,1234.60
             361.06,1233.88 358.09,1234.00 356.00,1234.00
             356.00,1234.00 219.00,1234.00 219.00,1234.00
             216.91,1234.00 213.94,1233.88 212.00,1234.60
             208.82,1235.77 205.41,1239.59 203.00,1242.00
             203.00,1242.00 185.00,1259.37 185.00,1259.37
             185.00,1259.37 149.00,1277.75 149.00,1277.75
             144.41,1280.05 137.81,1281.83 136.00,1287.00 Z
           M 597.00,1287.00
           C 597.00,1287.00 900.00,1287.00 900.00,1287.00
             898.19,1281.83 891.59,1280.05 887.00,1277.75
             887.00,1277.75 851.00,1259.37 851.00,1259.37
             851.00,1259.37 833.00,1242.00 833.00,1242.00
             830.59,1239.59 827.18,1235.77 824.00,1234.60
             822.06,1233.88 819.09,1234.00 817.00,1234.00
             817.00,1234.00 680.00,1234.00 680.00,1234.00
             677.91,1234.00 674.94,1233.88 673.00,1234.60
             669.82,1235.77 666.41,1239.59 664.00,1242.00
             659.66,1246.34 649.44,1257.14 645.00,1260.04
             645.00,1260.04 610.00,1277.75 610.00,1277.75
             605.41,1280.05 598.81,1281.83 597.00,1287.00 Z
           M 1061.00,1287.00
           C 1061.00,1287.00 1364.00,1287.00 1364.00,1287.00
             1362.19,1281.83 1355.59,1280.05 1351.00,1277.75
             1351.00,1277.75 1315.00,1259.37 1315.00,1259.37
             1315.00,1259.37 1297.00,1242.00 1297.00,1242.00
             1294.59,1239.59 1291.18,1235.77 1288.00,1234.60
             1286.06,1233.88 1283.09,1234.00 1281.00,1234.00
             1281.00,1234.00 1144.00,1234.00 1144.00,1234.00
             1141.91,1234.00 1138.94,1233.88 1137.00,1234.60
             1133.82,1235.77 1130.41,1239.59 1128.00,1242.00
             1123.66,1246.34 1113.44,1257.14 1109.00,1260.04
             1109.00,1260.04 1074.00,1277.75 1074.00,1277.75
             1069.41,1280.05 1062.81,1281.83 1061.00,1287.00 Z" />
</svg>
